<svg width="16" height="16" viewBox="0 0 16 16" fill="none" xmlns="http://www.w3.org/2000/svg">
<path fill-rule="evenodd" clip-rule="evenodd" d="M8 0C3.58172 0 0 3.58172 0 8C0 12.4183 3.58172 16 8 16C12.4183 16 16 12.4183 16 8C16 3.58172 12.4183 0 8 0ZM1.5 8C1.5 4.41015 4.41015 1.5 8 1.5C11.5899 1.5 14.5 4.41015 14.5 8C14.5 11.5899 11.5899 14.5 8 14.5C4.41015 14.5 1.5 11.5899 1.5 8ZM10.9005 6.12326C11.1067 5.76399 10.9825 5.30563 10.6233 5.09948C10.264 4.89333 9.80562 5.01747 9.59948 5.37674L7.30586 9.37403C7.20518 9.5495 6.94863 9.53895 6.86269 9.3558L6.42897 8.43142C6.25302 8.05643 5.8064 7.89508 5.43141 8.07103C5.05643 8.24697 4.89507 8.69359 5.07102 9.06858L5.50475 9.99296C6.10628 11.275 7.90211 11.3488 8.6069 10.1206L10.9005 6.12326Z" fill="white"/>
</svg>
